<mxfile host="app.diagrams.net" agent="Mozilla/5.0 (Windows NT 10.0; Win64; x64) AppleWebKit/537.36 (KHTML, like Gecko) Chrome/131.0.0.0 Safari/537.36" version="26.0.4">
  <diagram name="Страница — 1" id="ao-C0gekORTxKoDgm0Lk">
    <mxGraphModel dx="2514" dy="2077" grid="1" gridSize="10" guides="1" tooltips="1" connect="1" arrows="1" fold="1" page="1" pageScale="1" pageWidth="827" pageHeight="1169" math="0" shadow="0">
      <root>
        <mxCell id="0" />
        <mxCell id="1" parent="0" />
        <mxCell id="dVkj1jSq3Q2eEMDG2h25-1" value="Нажми на кнопку&amp;nbsp;&lt;div&gt;Registration&lt;/div&gt;" style="ellipse;whiteSpace=wrap;html=1;" vertex="1" parent="1">
          <mxGeometry x="220" y="220" width="120" height="50" as="geometry" />
        </mxCell>
        <mxCell id="dVkj1jSq3Q2eEMDG2h25-3" value="Зашел в MaslyakBank" style="ellipse;whiteSpace=wrap;html=1;" vertex="1" parent="1">
          <mxGeometry x="375" y="20" width="130" height="60" as="geometry" />
        </mxCell>
        <mxCell id="dVkj1jSq3Q2eEMDG2h25-4" value="Есть ли у тебя аккаунт в MaslyakBank?" style="shape=hexagon;perimeter=hexagonPerimeter2;whiteSpace=wrap;html=1;fixedSize=1;" vertex="1" parent="1">
          <mxGeometry x="380" y="110" width="120" height="80" as="geometry" />
        </mxCell>
        <mxCell id="dVkj1jSq3Q2eEMDG2h25-5" value="" style="endArrow=classic;html=1;rounded=0;exitX=0.5;exitY=1;exitDx=0;exitDy=0;entryX=0.5;entryY=0;entryDx=0;entryDy=0;" edge="1" parent="1" source="dVkj1jSq3Q2eEMDG2h25-3" target="dVkj1jSq3Q2eEMDG2h25-4">
          <mxGeometry width="50" height="50" relative="1" as="geometry">
            <mxPoint x="420" y="160" as="sourcePoint" />
            <mxPoint x="470" y="110" as="targetPoint" />
          </mxGeometry>
        </mxCell>
        <mxCell id="dVkj1jSq3Q2eEMDG2h25-6" value="" style="shape=link;html=1;rounded=0;" edge="1" parent="1">
          <mxGeometry width="100" relative="1" as="geometry">
            <mxPoint x="280" y="150" as="sourcePoint" />
            <mxPoint x="380" y="150" as="targetPoint" />
          </mxGeometry>
        </mxCell>
        <mxCell id="dVkj1jSq3Q2eEMDG2h25-7" value="" style="shape=link;html=1;rounded=0;width=4;" edge="1" parent="1">
          <mxGeometry width="100" relative="1" as="geometry">
            <mxPoint x="280" y="150" as="sourcePoint" />
            <mxPoint x="280" y="220" as="targetPoint" />
          </mxGeometry>
        </mxCell>
        <mxCell id="dVkj1jSq3Q2eEMDG2h25-8" value="" style="shape=link;html=1;rounded=0;" edge="1" parent="1">
          <mxGeometry width="100" relative="1" as="geometry">
            <mxPoint x="500" y="150" as="sourcePoint" />
            <mxPoint x="600" y="150" as="targetPoint" />
          </mxGeometry>
        </mxCell>
        <mxCell id="dVkj1jSq3Q2eEMDG2h25-9" value="" style="shape=link;html=1;rounded=0;width=6;" edge="1" parent="1">
          <mxGeometry width="100" relative="1" as="geometry">
            <mxPoint x="920" y="150" as="sourcePoint" />
            <mxPoint x="920" y="230" as="targetPoint" />
            <Array as="points">
              <mxPoint x="920" y="190" />
            </Array>
          </mxGeometry>
        </mxCell>
        <mxCell id="dVkj1jSq3Q2eEMDG2h25-10" value="Да" style="text;html=1;align=center;verticalAlign=middle;resizable=0;points=[];autosize=1;strokeColor=none;fillColor=none;" vertex="1" parent="1">
          <mxGeometry x="530" y="120" width="40" height="30" as="geometry" />
        </mxCell>
        <mxCell id="dVkj1jSq3Q2eEMDG2h25-11" value="Нет" style="text;html=1;align=center;verticalAlign=middle;resizable=0;points=[];autosize=1;strokeColor=none;fillColor=none;" vertex="1" parent="1">
          <mxGeometry x="310" y="120" width="40" height="30" as="geometry" />
        </mxCell>
        <mxCell id="dVkj1jSq3Q2eEMDG2h25-12" value="Введи свой логин и пароль" style="ellipse;whiteSpace=wrap;html=1;" vertex="1" parent="1">
          <mxGeometry x="860" y="230" width="120" height="50" as="geometry" />
        </mxCell>
        <mxCell id="dVkj1jSq3Q2eEMDG2h25-13" value="" style="endArrow=classic;html=1;rounded=0;entryX=0.5;entryY=0;entryDx=0;entryDy=0;" edge="1" parent="1" source="dVkj1jSq3Q2eEMDG2h25-1">
          <mxGeometry width="50" height="50" relative="1" as="geometry">
            <mxPoint x="170" y="340" as="sourcePoint" />
            <mxPoint x="280" y="299.9999999999999" as="targetPoint" />
          </mxGeometry>
        </mxCell>
        <mxCell id="dVkj1jSq3Q2eEMDG2h25-15" value="" style="endArrow=classic;html=1;rounded=0;entryX=0.5;entryY=0;entryDx=0;entryDy=0;" edge="1" parent="1" target="dVkj1jSq3Q2eEMDG2h25-16">
          <mxGeometry width="50" height="50" relative="1" as="geometry">
            <mxPoint x="280" y="340" as="sourcePoint" />
            <mxPoint x="220" y="360" as="targetPoint" />
          </mxGeometry>
        </mxCell>
        <mxCell id="dVkj1jSq3Q2eEMDG2h25-16" value="Введи свои данные&amp;nbsp;&lt;div&gt;(login, password,email)&lt;/div&gt;" style="rounded=0;whiteSpace=wrap;html=1;" vertex="1" parent="1">
          <mxGeometry x="215" y="370" width="130" height="40" as="geometry" />
        </mxCell>
        <mxCell id="dVkj1jSq3Q2eEMDG2h25-17" value="" style="endArrow=classic;html=1;rounded=0;entryX=0.5;entryY=0;entryDx=0;entryDy=0;" edge="1" parent="1" target="dVkj1jSq3Q2eEMDG2h25-18">
          <mxGeometry width="50" height="50" relative="1" as="geometry">
            <mxPoint x="280" y="410" as="sourcePoint" />
            <mxPoint x="220" y="420" as="targetPoint" />
          </mxGeometry>
        </mxCell>
        <mxCell id="dVkj1jSq3Q2eEMDG2h25-18" value="Нажми на кнопку Accept" style="rounded=0;whiteSpace=wrap;html=1;" vertex="1" parent="1">
          <mxGeometry x="215" y="430" width="130" height="40" as="geometry" />
        </mxCell>
        <mxCell id="dVkj1jSq3Q2eEMDG2h25-22" value="Проверка валидности данных" style="shape=hexagon;perimeter=hexagonPerimeter2;whiteSpace=wrap;html=1;fixedSize=1;" vertex="1" parent="1">
          <mxGeometry x="225" y="500" width="110" height="60" as="geometry" />
        </mxCell>
        <mxCell id="dVkj1jSq3Q2eEMDG2h25-23" value="" style="endArrow=classic;html=1;rounded=0;exitX=0.5;exitY=1;exitDx=0;exitDy=0;entryX=0.5;entryY=0;entryDx=0;entryDy=0;" edge="1" parent="1" target="dVkj1jSq3Q2eEMDG2h25-22">
          <mxGeometry width="50" height="50" relative="1" as="geometry">
            <mxPoint x="280" y="470" as="sourcePoint" />
            <mxPoint x="310" y="500" as="targetPoint" />
          </mxGeometry>
        </mxCell>
        <mxCell id="dVkj1jSq3Q2eEMDG2h25-25" value="" style="endArrow=classic;html=1;rounded=0;exitX=0;exitY=0.5;exitDx=0;exitDy=0;entryX=0.952;entryY=0.404;entryDx=0;entryDy=0;entryPerimeter=0;" edge="1" parent="1" source="dVkj1jSq3Q2eEMDG2h25-22" target="dVkj1jSq3Q2eEMDG2h25-45">
          <mxGeometry width="50" height="50" relative="1" as="geometry">
            <mxPoint x="240.00000000000006" y="529.5" as="sourcePoint" />
            <mxPoint x="130" y="530" as="targetPoint" />
          </mxGeometry>
        </mxCell>
        <mxCell id="dVkj1jSq3Q2eEMDG2h25-26" value="" style="endArrow=classic;html=1;rounded=0;exitX=1;exitY=0.5;exitDx=0;exitDy=0;entryX=0;entryY=0.5;entryDx=0;entryDy=0;" edge="1" parent="1" source="dVkj1jSq3Q2eEMDG2h25-22">
          <mxGeometry width="50" height="50" relative="1" as="geometry">
            <mxPoint x="340" y="530" as="sourcePoint" />
            <mxPoint x="420" y="530" as="targetPoint" />
          </mxGeometry>
        </mxCell>
        <mxCell id="dVkj1jSq3Q2eEMDG2h25-29" value="Не Валидны" style="text;html=1;align=center;verticalAlign=middle;resizable=0;points=[];autosize=1;strokeColor=none;fillColor=none;" vertex="1" parent="1">
          <mxGeometry x="330" y="510" width="90" height="30" as="geometry" />
        </mxCell>
        <mxCell id="dVkj1jSq3Q2eEMDG2h25-31" value="Валидны" style="text;html=1;align=center;verticalAlign=middle;resizable=0;points=[];autosize=1;strokeColor=none;fillColor=none;" vertex="1" parent="1">
          <mxGeometry x="140" y="510" width="70" height="30" as="geometry" />
        </mxCell>
        <mxCell id="dVkj1jSq3Q2eEMDG2h25-32" value="DB" style="shape=cylinder3;whiteSpace=wrap;html=1;boundedLbl=1;backgroundOutline=1;size=15;" vertex="1" parent="1">
          <mxGeometry x="35" y="390" width="60" height="80" as="geometry" />
        </mxCell>
        <mxCell id="dVkj1jSq3Q2eEMDG2h25-35" value="" style="shape=flexArrow;endArrow=classic;html=1;rounded=0;exitX=0.364;exitY=-0.017;exitDx=0;exitDy=0;exitPerimeter=0;entryX=0.45;entryY=0.992;entryDx=0;entryDy=0;entryPerimeter=0;" edge="1" parent="1">
          <mxGeometry width="50" height="50" relative="1" as="geometry">
            <mxPoint x="65.11999999999993" y="509.99999999999994" as="sourcePoint" />
            <mxPoint x="64.8" y="470.04" as="targetPoint" />
          </mxGeometry>
        </mxCell>
        <mxCell id="dVkj1jSq3Q2eEMDG2h25-36" value="" style="endArrow=classic;html=1;rounded=0;exitX=0.5;exitY=1;exitDx=0;exitDy=0;entryX=0.5;entryY=0;entryDx=0;entryDy=0;" edge="1" parent="1">
          <mxGeometry width="50" height="50" relative="1" as="geometry">
            <mxPoint x="65" y="550" as="sourcePoint" />
            <mxPoint x="65" y="600" as="targetPoint" />
          </mxGeometry>
        </mxCell>
        <mxCell id="dVkj1jSq3Q2eEMDG2h25-39" value="" style="endArrow=none;html=1;rounded=0;entryX=0;entryY=0.5;entryDx=0;entryDy=0;" edge="1" parent="1">
          <mxGeometry width="50" height="50" relative="1" as="geometry">
            <mxPoint x="-50" y="620" as="sourcePoint" />
            <mxPoint y="620" as="targetPoint" />
          </mxGeometry>
        </mxCell>
        <mxCell id="dVkj1jSq3Q2eEMDG2h25-40" value="" style="endArrow=none;html=1;rounded=0;" edge="1" parent="1">
          <mxGeometry width="50" height="50" relative="1" as="geometry">
            <mxPoint x="-50" y="620" as="sourcePoint" />
            <mxPoint x="-40" y="120" as="targetPoint" />
          </mxGeometry>
        </mxCell>
        <mxCell id="dVkj1jSq3Q2eEMDG2h25-41" value="" style="endArrow=classic;html=1;rounded=0;entryX=0.171;entryY=0.035;entryDx=0;entryDy=0;entryPerimeter=0;" edge="1" parent="1">
          <mxGeometry width="50" height="50" relative="1" as="geometry">
            <mxPoint x="-40" y="120" as="sourcePoint" />
            <mxPoint x="395.26" y="120.00000000000001" as="targetPoint" />
          </mxGeometry>
        </mxCell>
        <mxCell id="dVkj1jSq3Q2eEMDG2h25-42" value="Нажми на кнопку JOIN" style="rounded=0;whiteSpace=wrap;html=1;" vertex="1" parent="1">
          <mxGeometry x="857.5" y="310" width="125" height="40" as="geometry" />
        </mxCell>
        <mxCell id="dVkj1jSq3Q2eEMDG2h25-43" value="" style="endArrow=classic;html=1;rounded=0;exitX=0.5;exitY=1;exitDx=0;exitDy=0;entryX=0.491;entryY=0.041;entryDx=0;entryDy=0;entryPerimeter=0;" edge="1" parent="1" source="dVkj1jSq3Q2eEMDG2h25-12" target="dVkj1jSq3Q2eEMDG2h25-42">
          <mxGeometry width="50" height="50" relative="1" as="geometry">
            <mxPoint x="920" y="330" as="sourcePoint" />
            <mxPoint x="970" y="280" as="targetPoint" />
          </mxGeometry>
        </mxCell>
        <mxCell id="dVkj1jSq3Q2eEMDG2h25-44" value="" style="endArrow=classic;html=1;rounded=0;exitX=0.5;exitY=1;exitDx=0;exitDy=0;" edge="1" parent="1" source="dVkj1jSq3Q2eEMDG2h25-42">
          <mxGeometry width="50" height="50" relative="1" as="geometry">
            <mxPoint x="910" y="430" as="sourcePoint" />
            <mxPoint x="920" y="380" as="targetPoint" />
          </mxGeometry>
        </mxCell>
        <mxCell id="dVkj1jSq3Q2eEMDG2h25-45" value="&amp;nbsp; Добавление данных в базу данных" style="shape=parallelogram;perimeter=parallelogramPerimeter;whiteSpace=wrap;html=1;fixedSize=1;" vertex="1" parent="1">
          <mxGeometry x="-20" y="510" width="150" height="50" as="geometry" />
        </mxCell>
        <mxCell id="dVkj1jSq3Q2eEMDG2h25-46" value="Переход на страницу авторизации" style="shape=parallelogram;perimeter=parallelogramPerimeter;whiteSpace=wrap;html=1;fixedSize=1;" vertex="1" parent="1">
          <mxGeometry x="-10" y="600" width="150" height="50" as="geometry" />
        </mxCell>
        <mxCell id="dVkj1jSq3Q2eEMDG2h25-47" value="Вывод ошибки указывающие где данные не валидны" style="shape=parallelogram;perimeter=parallelogramPerimeter;whiteSpace=wrap;html=1;fixedSize=1;" vertex="1" parent="1">
          <mxGeometry x="410" y="505" width="145" height="60" as="geometry" />
        </mxCell>
        <mxCell id="dVkj1jSq3Q2eEMDG2h25-51" value="Проверка валидности данных" style="shape=hexagon;perimeter=hexagonPerimeter2;whiteSpace=wrap;html=1;fixedSize=1;" vertex="1" parent="1">
          <mxGeometry x="865" y="380" width="110" height="60" as="geometry" />
        </mxCell>
        <mxCell id="dVkj1jSq3Q2eEMDG2h25-52" value="Не Валидны" style="text;html=1;align=center;verticalAlign=middle;resizable=0;points=[];autosize=1;strokeColor=none;fillColor=none;" vertex="1" parent="1">
          <mxGeometry x="970" y="385" width="90" height="30" as="geometry" />
        </mxCell>
        <mxCell id="dVkj1jSq3Q2eEMDG2h25-53" value="Валидны" style="text;html=1;align=center;verticalAlign=middle;resizable=0;points=[];autosize=1;strokeColor=none;fillColor=none;" vertex="1" parent="1">
          <mxGeometry x="790" y="385" width="70" height="30" as="geometry" />
        </mxCell>
        <mxCell id="dVkj1jSq3Q2eEMDG2h25-54" value="&amp;nbsp; Поиск совпадения с базой данных" style="shape=parallelogram;perimeter=parallelogramPerimeter;whiteSpace=wrap;html=1;fixedSize=1;" vertex="1" parent="1">
          <mxGeometry x="620" y="390" width="170" height="50" as="geometry" />
        </mxCell>
        <mxCell id="dVkj1jSq3Q2eEMDG2h25-55" value="Вывод ошибки указывающие где данные не валидны" style="shape=parallelogram;perimeter=parallelogramPerimeter;whiteSpace=wrap;html=1;fixedSize=1;" vertex="1" parent="1">
          <mxGeometry x="1050" y="380" width="145" height="60" as="geometry" />
        </mxCell>
        <mxCell id="dVkj1jSq3Q2eEMDG2h25-56" value="" style="shape=link;html=1;rounded=0;" edge="1" parent="1">
          <mxGeometry width="100" relative="1" as="geometry">
            <mxPoint x="600" y="150" as="sourcePoint" />
            <mxPoint x="700" y="150" as="targetPoint" />
          </mxGeometry>
        </mxCell>
        <mxCell id="dVkj1jSq3Q2eEMDG2h25-57" value="" style="shape=link;html=1;rounded=0;" edge="1" parent="1">
          <mxGeometry width="100" relative="1" as="geometry">
            <mxPoint x="700" y="150" as="sourcePoint" />
            <mxPoint x="800" y="150" as="targetPoint" />
          </mxGeometry>
        </mxCell>
        <mxCell id="dVkj1jSq3Q2eEMDG2h25-58" value="" style="shape=link;html=1;rounded=0;" edge="1" parent="1">
          <mxGeometry width="100" relative="1" as="geometry">
            <mxPoint x="800" y="150" as="sourcePoint" />
            <mxPoint x="900" y="150" as="targetPoint" />
          </mxGeometry>
        </mxCell>
        <mxCell id="dVkj1jSq3Q2eEMDG2h25-59" value="" style="shape=link;html=1;rounded=0;" edge="1" parent="1">
          <mxGeometry width="100" relative="1" as="geometry">
            <mxPoint x="827" y="150" as="sourcePoint" />
            <mxPoint x="920" y="150" as="targetPoint" />
          </mxGeometry>
        </mxCell>
        <mxCell id="dVkj1jSq3Q2eEMDG2h25-60" value="" style="shape=link;html=1;rounded=0;" edge="1" parent="1">
          <mxGeometry width="100" relative="1" as="geometry">
            <mxPoint x="897" y="150" as="sourcePoint" />
            <mxPoint x="907" y="150" as="targetPoint" />
          </mxGeometry>
        </mxCell>
        <mxCell id="dVkj1jSq3Q2eEMDG2h25-61" value="&amp;nbsp; Переход на фрейм регистрации" style="shape=parallelogram;perimeter=parallelogramPerimeter;whiteSpace=wrap;html=1;fixedSize=1;" vertex="1" parent="1">
          <mxGeometry x="212.5" y="300" width="135" height="40" as="geometry" />
        </mxCell>
        <mxCell id="dVkj1jSq3Q2eEMDG2h25-65" value="" style="endArrow=classic;html=1;rounded=0;exitX=0;exitY=0.5;exitDx=0;exitDy=0;" edge="1" parent="1">
          <mxGeometry width="50" height="50" relative="1" as="geometry">
            <mxPoint x="865" y="409.28999999999996" as="sourcePoint" />
            <mxPoint x="780" y="410" as="targetPoint" />
          </mxGeometry>
        </mxCell>
        <mxCell id="dVkj1jSq3Q2eEMDG2h25-67" value="" style="endArrow=classic;html=1;rounded=0;entryX=0;entryY=0.5;entryDx=0;entryDy=0;exitX=1;exitY=0.5;exitDx=0;exitDy=0;" edge="1" parent="1" source="dVkj1jSq3Q2eEMDG2h25-51" target="dVkj1jSq3Q2eEMDG2h25-55">
          <mxGeometry width="50" height="50" relative="1" as="geometry">
            <mxPoint x="980" y="410" as="sourcePoint" />
            <mxPoint x="1060.0049999999999" y="403.34" as="targetPoint" />
          </mxGeometry>
        </mxCell>
        <mxCell id="dVkj1jSq3Q2eEMDG2h25-70" value="DB" style="shape=cylinder3;whiteSpace=wrap;html=1;boundedLbl=1;backgroundOutline=1;size=15;" vertex="1" parent="1">
          <mxGeometry x="671.25" y="490" width="67.5" height="160" as="geometry" />
        </mxCell>
        <mxCell id="dVkj1jSq3Q2eEMDG2h25-71" value="" style="shape=flexArrow;endArrow=classic;startArrow=classic;html=1;rounded=0;" edge="1" parent="1">
          <mxGeometry width="100" height="100" relative="1" as="geometry">
            <mxPoint x="704.71" y="490" as="sourcePoint" />
            <mxPoint x="704.71" y="440" as="targetPoint" />
            <Array as="points">
              <mxPoint x="704.71" y="490" />
              <mxPoint x="704.71" y="470" />
            </Array>
          </mxGeometry>
        </mxCell>
        <mxCell id="dVkj1jSq3Q2eEMDG2h25-77" style="edgeStyle=orthogonalEdgeStyle;rounded=0;orthogonalLoop=1;jettySize=auto;html=1;entryX=0.5;entryY=0;entryDx=0;entryDy=0;" edge="1" parent="1" source="dVkj1jSq3Q2eEMDG2h25-74" target="dVkj1jSq3Q2eEMDG2h25-3">
          <mxGeometry relative="1" as="geometry" />
        </mxCell>
        <mxCell id="dVkj1jSq3Q2eEMDG2h25-74" value="Actor" style="shape=umlActor;verticalLabelPosition=bottom;verticalAlign=top;html=1;outlineConnect=0;" vertex="1" parent="1">
          <mxGeometry x="425" y="-90" width="30" height="60" as="geometry" />
        </mxCell>
        <mxCell id="dVkj1jSq3Q2eEMDG2h25-78" value="" style="endArrow=classic;html=1;rounded=0;exitX=0.003;exitY=0.742;exitDx=0;exitDy=0;exitPerimeter=0;" edge="1" parent="1">
          <mxGeometry width="50" height="50" relative="1" as="geometry">
            <mxPoint x="671.2524999999998" y="610.0000000000002" as="sourcePoint" />
            <mxPoint x="599.8" y="611.28" as="targetPoint" />
          </mxGeometry>
        </mxCell>
        <mxCell id="dVkj1jSq3Q2eEMDG2h25-79" value="" style="endArrow=classic;html=1;rounded=0;" edge="1" parent="1">
          <mxGeometry width="50" height="50" relative="1" as="geometry">
            <mxPoint x="738.75" y="610" as="sourcePoint" />
            <mxPoint x="818.75" y="610" as="targetPoint" />
          </mxGeometry>
        </mxCell>
        <mxCell id="dVkj1jSq3Q2eEMDG2h25-80" value="Не нашел" style="text;html=1;align=center;verticalAlign=middle;resizable=0;points=[];autosize=1;strokeColor=none;fillColor=none;" vertex="1" parent="1">
          <mxGeometry x="600" y="588" width="80" height="30" as="geometry" />
        </mxCell>
        <mxCell id="dVkj1jSq3Q2eEMDG2h25-81" value="Вывод ошибки" style="rounded=0;whiteSpace=wrap;html=1;" vertex="1" parent="1">
          <mxGeometry x="450" y="600" width="150" height="25" as="geometry" />
        </mxCell>
        <mxCell id="dVkj1jSq3Q2eEMDG2h25-82" value="Нашел" style="text;html=1;align=center;verticalAlign=middle;resizable=0;points=[];autosize=1;strokeColor=none;fillColor=none;" vertex="1" parent="1">
          <mxGeometry x="738.75" y="588" width="60" height="30" as="geometry" />
        </mxCell>
        <mxCell id="dVkj1jSq3Q2eEMDG2h25-83" value="Выдача токена" style="shape=parallelogram;perimeter=parallelogramPerimeter;whiteSpace=wrap;html=1;fixedSize=1;" vertex="1" parent="1">
          <mxGeometry x="810" y="583" width="120" height="60" as="geometry" />
        </mxCell>
        <mxCell id="dVkj1jSq3Q2eEMDG2h25-84" value="" style="endArrow=classic;html=1;rounded=0;exitX=0.421;exitY=1.024;exitDx=0;exitDy=0;exitPerimeter=0;" edge="1" parent="1" source="dVkj1jSq3Q2eEMDG2h25-83">
          <mxGeometry width="50" height="50" relative="1" as="geometry">
            <mxPoint x="850" y="730" as="sourcePoint" />
            <mxPoint x="860" y="690" as="targetPoint" />
          </mxGeometry>
        </mxCell>
        <mxCell id="dVkj1jSq3Q2eEMDG2h25-85" value="Добавление токена в DB" style="shape=parallelogram;perimeter=parallelogramPerimeter;whiteSpace=wrap;html=1;fixedSize=1;" vertex="1" parent="1">
          <mxGeometry x="798.75" y="690" width="161.25" height="50" as="geometry" />
        </mxCell>
        <mxCell id="dVkj1jSq3Q2eEMDG2h25-86" value="" style="endArrow=none;html=1;rounded=0;fontSize=11;" edge="1" parent="1" target="dVkj1jSq3Q2eEMDG2h25-85">
          <mxGeometry width="50" height="50" relative="1" as="geometry">
            <mxPoint x="705" y="715" as="sourcePoint" />
            <mxPoint x="780" y="710" as="targetPoint" />
          </mxGeometry>
        </mxCell>
        <mxCell id="dVkj1jSq3Q2eEMDG2h25-87" value="" style="endArrow=classic;html=1;rounded=0;entryX=0.5;entryY=1;entryDx=0;entryDy=0;entryPerimeter=0;" edge="1" parent="1">
          <mxGeometry width="50" height="50" relative="1" as="geometry">
            <mxPoint x="704.98" y="715" as="sourcePoint" />
            <mxPoint x="704.9799999999998" y="650" as="targetPoint" />
            <Array as="points">
              <mxPoint x="704.98" y="670" />
            </Array>
          </mxGeometry>
        </mxCell>
        <mxCell id="dVkj1jSq3Q2eEMDG2h25-88" value="" style="endArrow=classic;html=1;rounded=0;exitX=1;exitY=0.5;exitDx=0;exitDy=0;" edge="1" parent="1" source="dVkj1jSq3Q2eEMDG2h25-83" target="dVkj1jSq3Q2eEMDG2h25-89">
          <mxGeometry width="50" height="50" relative="1" as="geometry">
            <mxPoint x="940" y="650" as="sourcePoint" />
            <mxPoint x="1000" y="613" as="targetPoint" />
          </mxGeometry>
        </mxCell>
        <mxCell id="dVkj1jSq3Q2eEMDG2h25-89" value="Переход в MaslyakBank" style="rounded=0;whiteSpace=wrap;html=1;" vertex="1" parent="1">
          <mxGeometry x="1075" y="582.5" width="120" height="60" as="geometry" />
        </mxCell>
      </root>
    </mxGraphModel>
  </diagram>
</mxfile>
